<?xml version="1.0" encoding="UTF-8" standalone="no"?>
<svg
   xmlns:dc="http://purl.org/dc/elements/1.1/"
   xmlns:cc="http://creativecommons.org/ns#"
   xmlns:rdf="http://www.w3.org/1999/02/22-rdf-syntax-ns#"
   xmlns:svg="http://www.w3.org/2000/svg"
   xmlns="http://www.w3.org/2000/svg"
   xmlns:sodipodi="http://sodipodi.sourceforge.net/DTD/sodipodi-0.dtd"
   xmlns:inkscape="http://www.inkscape.org/namespaces/inkscape"
   id="Livello_1"
   data-name="Livello 1"
   viewBox="-1 -1 27.62 36.74"
   version="1.1"
   sodipodi:docname="ECONOMY.svg"
   inkscape:version="0.92.4 (5da689c313, 2019-01-14)">
  <metadata
     id="metadata12">
    <rdf:RDF>
      <cc:Work
         rdf:about="">
        <dc:format>image/svg+xml</dc:format>
        <dc:type
           rdf:resource="http://purl.org/dc/dcmitype/StillImage" />
      </cc:Work>
    </rdf:RDF>
  </metadata>
  <defs
     id="defs10" />
  <sodipodi:namedview
     pagecolor="#ffffff"
     bordercolor="#666666"
     borderopacity="1"
     objecttolerance="10"
     gridtolerance="10"
     guidetolerance="10"
     inkscape:pageopacity="0"
     inkscape:pageshadow="2"
     inkscape:window-width="1920"
     inkscape:window-height="986"
     id="namedview8"
     showgrid="false"
     inkscape:zoom="36.336895"
     inkscape:cx="17.214722"
     inkscape:cy="36.809462"
     inkscape:window-x="-11"
     inkscape:window-y="-11"
     inkscape:window-maximized="1"
     inkscape:current-layer="Livello_1" />
  <g
     id="economia">
    <path
       id="_Tracciato_composto_"
       data-name="&lt;Tracciato composto&gt;"
       d="M 37.12,33.76 C 36.45,33.1 35.64,26.62 35,21.4 V 21.12 C 33.79,11.71 24.68,12 24.14,12 23.6,12 14.49,11.73 13.32,21.13 v 0.28 c -0.24,1.92 -0.5,4 -0.76,5.91 l -1.19,6.08 c -0.04405,0.131238 -0.111845,0.253264 -0.2,0.36 -0.468696,0.02154 -0.835887,0.410847 -0.83,0.88 0.02879,0.415286 0.260831,0.789551 0.62,1 0.528567,0.311788 1.137127,0.46132 1.75,0.43 1.352,0.09832 2.69146,0.32603 4,0.68 2.290189,0.586073 4.637318,0.921377 7,1 0.169299,-0.0014 0.336351,-0.03889 0.49,-0.11 0.153649,0.07111 0.320701,0.108608 0.49,0.11 2.362696,-0.07847 4.709841,-0.413772 7,-1 1.30854,-0.35397 2.648,-0.581678 4,-0.68 0.612873,0.03132 1.221433,-0.118212 1.75,-0.43 0.359169,-0.210449 0.591214,-0.584714 0.62,-1 0.0076,-0.513175 -0.428438,-0.92135 -0.94,-0.88 z"
       transform="translate(-10.34,-2.3)"
       inkscape:connector-curvature="0"
       sodipodi:nodetypes="cccsccccccccccccccccc" />
    <path
       id="_Tracciato_3"
       data-name="&lt;Tracciato&gt;"
       class="cls-1"
       d="M19.43,9.62c0.44,0.66.83,1.23,1,1.51a0.73,0.73,0,0,0,.8.35,11.06,11.06,0,0,1,2.89-.32h0.08a11.38,11.38,0,0,1,3.2.4l0.19,0a0.72,0.72,0,0,0,.63-0.36c0.21-.37.67-1.05,1.14-1.78a38.19,38.19,0,0,0,2.4-3.93,0.72,0.72,0,0,0-.94-1,16,16,0,0,1-2.8.28,1.55,1.55,0,0,1-1.37-1A2.65,2.65,0,0,0,24.35,2.3a3.51,3.51,0,0,0-2.66,1.5,1.79,1.79,0,0,1-1.05.79,13.14,13.14,0,0,1-3-.45,0.72,0.72,0,0,0-1,.93A33.78,33.78,0,0,0,19.43,9.62Z"
       transform="translate(-10.34 -2.3)" />
  </g>
</svg>
