<?xml version="1.0" encoding="utf-8"?>
<!-- Generator: Adobe Illustrator 19.1.0, SVG Export Plug-In . SVG Version: 6.00 Build 0)  -->
<svg version="1.1" id="Livello_1" xmlns="http://www.w3.org/2000/svg" xmlns:xlink="http://www.w3.org/1999/xlink" x="0px" y="0px"
	 xml:space="preserve" >
<g>
	<path fill='#000'  stroke='#f00' d="M423.51,1967.93a1104.7,1104.7,0,0,0,580.62,305.8v380.73H430.56v403.92h573.57v472H1408v-472h573.57V2654.46H1408V2273.73a1108.76,1108.76,0,0,0,817.73-657.52c57.76-136.58,87.05-281.54,87.05-430.86s-29.29-294.28-87.05-430.85a1109.92,1109.92,0,0,0-588.83-588.83c-136.57-57.76-281.53-87-430.85-87s-294.28,29.29-430.86,87A1109.95,1109.95,0,0,0,186.41,754.5C128.64,891.07,99.35,1036,99.35,1185.35s29.29,294.28,87.06,430.86A1102.63,1102.63,0,0,0,423.51,1967.93ZM1206.09,482.54c387.53,0,702.81,315.28,702.81,702.81s-315.28,702.82-702.81,702.82-702.82-315.28-702.82-702.82S818.55,482.54,1206.09,482.54Z" />
</g>
</svg>
